<svg id="Layer_1" data-name="Layer 1" xmlns="http://www.w3.org/2000/svg" viewBox="0 0 936.03 226.44"><defs><style>.cls-1{fill:#AD974F;}</style></defs><title>mcfd_symbol_gg</title><path class="cls-1" d="M370.51,328.9c-2.19,3.07-4.37,6.14-6.57,9.21q-28.63,40.08-57.36,80.11c-1.87,2.58-1.58,4.11.14,6.44,9.36,12.68,18.58,25.46,27.82,38.23a12.92,12.92,0,0,1,2.22,3.83,3.15,3.15,0,0,1-.95,2.88,4.33,4.33,0,0,1-3.45-.11c-.95-.46-1.55-1.68-2.22-2.62q-51.42-71.52-102.79-143.08a15.29,15.29,0,0,1-2.13-4.85c-.2-.74.35-2.35.85-2.48a4.06,4.06,0,0,1,3.09.56,13.6,13.6,0,0,1,2.42,3.13Q265.35,367,299.1,413.8c.47.65,1,1.26,1.87,2.36,2.53-3.43,4.89-6.56,7.17-9.75q31-43.57,62.12-87.15c1.22-1.7,2-4.69,5.13-3.56s1.78,3.93,1.78,6.06q.07,70.73,0,141.46c0,1.5.27,3.09-.16,4.45-.33,1.06-1.55,1.84-2.37,2.74-.92-1-2.13-1.79-2.67-2.93-.45-1-.13-2.28-.13-3.45V329.28Z" transform="translate(-225.05 -279.55)"/><path class="cls-1" d="M694.75,321.65v34.26c-5.91-1.14-5.87-1.14-5.86-6.56,0-9.29,0-18.59,0-27.89,0-4.84.69-5.55,5.42-5.56,15,0,30-.23,44.94.07,36.44.76,68,29.21,73.44,65.08,6,39.18-19.58,79.66-63.35,87-12.18,2-24.87,1.05-37.33,1.46-2.55.08-3.63-1.26-3.63-3.67V429.61l5.66,1.39v32.91c10.26-.37,20.43.09,30.36-1.25,30.33-4.11,51.14-20.83,60.21-50,13.5-43.48-17.33-87.06-61.12-90.72-8.75-.73-17.61-.19-26.42-.38-2.52-.06-3.07,1-3,3.26.1,8.3.15,16.61,0,24.91-.09,6.08.91,4.58-5.34,6.92-.13-1.35-.34-2.59-.35-3.83,0-9,0-17.94,0-26.9,0-4.21,0-4.22-4.41-4.26C701.17,321.63,698.35,321.65,694.75,321.65Z" transform="translate(-225.05 -279.55)"/><path class="cls-1" d="M571.87,321v4.27q0,25.65,0,51.31c0,5.56-.63,5.15,5,5.15h62.42c1.33,0,2.82-.33,4,.15s2,1.79,2.94,2.73c-1,.91-1.8,2.16-2.95,2.62s-2.63.14-4,.14H572.11v12.85h67.58c.83,0,1.66,0,2.49,0,2.25,0,4.74,0,4.84,2.94.11,3.19-2.37,3.44-4.89,3.44q-32.21,0-64.42,0h-5.87v8.23q0,24.17,0,48.32a13,13,0,0,1-.13,4c-.4,1.22-1.48,2.22-2.26,3.32-1.16-1-2.61-1.76-3.38-3-.53-.83-.14-2.26-.14-3.42q0-71.25,0-142.48c0-6.08.16-6.26,6.06-6.26q44.19,0,88.38,0c1.33,0,2.83-.24,3.93.29a3.93,3.93,0,0,1,2.11,2.8c0,.89-1.39,2.09-2.42,2.47s-2.62.14-4,.14H571.87Z" transform="translate(-225.05 -279.55)"/><path class="cls-1" d="M490.19,464.94c16.87-.29,31.45-6.42,44.6-16.5,1.05-.81,2-2,3.16-2.36a4,4,0,0,1,3.45.57,4.11,4.11,0,0,1,.34,3.48c-.34,1-1.52,1.7-2.41,2.44-17.14,14.35-37,20.05-59,17.11-30.65-4.1-51.92-21.05-63.23-49.58-17.43-44,10.69-94,57.37-103.15,22.84-4.48,43.44.73,62.21,14.05a19.56,19.56,0,0,1,4.43,4c.69.93.47,2.55.66,3.86-1.48.2-3,.7-4.42.48-1-.17-1.86-1.31-2.8-2-9.72-7.16-20.15-12.82-32.18-15.06-29.26-5.45-60.3,9.35-75,35.19-24.32,42.81.43,95.76,48.44,105.77C480.54,464.19,485.4,464.38,490.19,464.94Z" transform="translate(-225.05 -279.55)"/><path class="cls-1" d="M663.71,379.76c.07,1.19.19,2.17.16,3.14-.26,7.66,5.85,12,11.23,14.17.92.36,2.17-.08,3.26-.15a9,9,0,0,0-.24-2.82c-2.55-5.81-2.92-12-3.48-18.19-.37-4.05,1.56-7.37,3.75-10.36,3.23-4.41,10.12-5,15-1.64,5.57,3.77,11.08,3.66,16.75.07,6.27-4,12.66-2.69,16.56,3.11,3.17,4.71,2.53,7.43-1.83,12-7.07,7.34-15.8,11.81-25.15,15.34a50.6,50.6,0,0,0-8.48,3.8c4.59-.67,9.44-.64,13.73-2.16,10.61-3.76,20.25-9.21,27.41-18.33,5-6.4,5.6-13.55.92-20.2-.83-1.18-2.59-1.71-3.61-3.43a19.07,19.07,0,0,1,3.82.82c5.18,2.22,11.09,8,10,13.94A26.27,26.27,0,0,1,738,380.93c-11.12,12.64-25.69,19.27-42.16,21.95-6.74,1.1-13.53,1.84-20.28.15a41.84,41.84,0,0,1-8.35-2.88C660.34,396.78,657.14,388.92,663.71,379.76Z" transform="translate(-225.05 -279.55)"/><path class="cls-1" d="M230,361.33v4.81q0,48.3,0,96.6a15.18,15.18,0,0,1-.47,4.88,3.41,3.41,0,0,1-2.66,1.66c-.56,0-1.32-1.46-1.67-2.38a7.25,7.25,0,0,1-.06-2.47q0-56,.06-112c0-1.58.89-3.17,1.36-4.75,1.25.93,2.83,1.62,3.69,2.82q39.22,54.52,78.3,109.15c1.26,1.75,2.36,3.6,3.53,5.41,1,1.58,2.1,3.24,0,4.75-2.4,1.75-3.66-.23-4.84-1.78-2-2.65-3.85-5.41-5.77-8.11l-69.6-97.63c-.28-.39-.62-.73-.94-1.1Z" transform="translate(-225.05 -279.55)"/><path class="cls-1" d="M844.72,505.88V280c5.25-.94,5.27-.94,5.26,4.26q0,105.33-.05,210.65c0,2.32.06,4.65,0,7C849.93,506.19,849.91,506.19,844.72,505.88Z" transform="translate(-225.05 -279.55)"/><path class="cls-1" d="M892.62,323.38c0,4.58.1,9.15-.08,13.72a3.47,3.47,0,0,1-1.68,2.69c-2.16.57-2.23-1.1-2.22-2.73,0-6.94,0-13.89,0-20.77,6.16-1.32,6.15-1.32,8.58,3.69,1.62,3.35,3.24,6.7,5.35,11,2-4.19,3.51-7.4,5-10.6,2.4-5,2.41-5,8.72-4.43,0,7.17,0,14.4-.07,21.63a3,3,0,0,1-1.67,2.2c-1.71.5-2.25-.61-2.23-2.25.06-4.73,0-9.46,0-14.2l-1.18-.42c-1.62,3.07-3.18,6.16-4.88,9.19-1.09,1.94-2.39,3.78-3.59,5.66a61.28,61.28,0,0,1-4.16-5.69c-1.69-2.95-3.06-6.07-4.56-9.12Z" transform="translate(-225.05 -279.55)"/><path class="cls-1" d="M949.5,445.7c2.77-1.19,4.39-.3,5.85,1.68,2.87,3.86,5.87,7.62,8.85,11.39A8.45,8.45,0,0,0,968,461.7V450.56a10.74,10.74,0,0,1,.1-3.46,3.7,3.7,0,0,1,2.16-1.81c.32-.1,1.51,1.1,1.57,1.78a63.21,63.21,0,0,1,.09,6.46c0,5.13,0,10.26,0,15.35-3,1.48-4.75.23-6.38-2-2.54-3.49-5.27-6.83-8-10.2-.88-1.1-1.93-2.06-2.9-3.09l-1.2.33c0,4.22,0,8.43,0,12.64,0,1.41.45,3.05-2.06,3s-1.88-1.81-1.89-3.14C949.48,459.45,949.5,452.51,949.5,445.7Z" transform="translate(-225.05 -279.55)"/><path class="cls-1" d="M1131.11,339.48c-3.44,1.22-5.09-.28-6.71-2.47-3.4-4.59-7-9-10.53-13.51l-1.3.31q0,5.52,0,11a12.43,12.43,0,0,1-.12,3.46,2.54,2.54,0,0,1-1.85,1.5c-.66,0-1.87-.92-1.88-1.46-.14-7-.13-13.91,0-20.87,0-.62.83-1.79,1.2-1.76,1.23.1,2.83.27,3.55,1.07,2.44,2.69,4.55,5.68,6.81,8.54a36.08,36.08,0,0,0,6.92,7.21c0-4.55-.05-9.1,0-13.65,0-1.29-.78-3.16,1.77-3.26,2.33-.08,2.18,1.4,2.18,2.95C1131.1,325.51,1131.11,332.45,1131.11,339.48Z" transform="translate(-225.05 -279.55)"/><path class="cls-1" d="M997.27,327.37c3,2.05,4.78,4.4,3.36,8-1.35,3.44-4.21,4.42-7.54,4.49-3.62.07-7.24,0-11.44,0,0-7.46,0-14.67,0-21.89,0-1.63.62-2.42,2.33-2.37,2.81.07,5.64-.12,8.43.13C999.56,316.4,1001.59,320.91,997.27,327.37Zm-6.89,8.85c1.24-.06,2.23-.09,3.22-.15,2.12-.14,3.48-1.23,3.44-3.38,0-1.91-1.34-2.88-3.22-3.06-1.31-.12-2.61-.31-3.92-.34-4.28-.11-4.42.21-4.34,4.33C985.64,338,989,335.31,990.38,336.22Zm-1.46-17.1c-2.44-.51-3.32.64-3.37,3.5,0,3.39,1.88,3.3,4.16,3.13s5.33.35,5.65-3.24C995.58,320.1,993.63,319.09,988.92,319.12Z" transform="translate(-225.05 -279.55)"/><path class="cls-1" d="M963.2,418.09l5.67,8.11c-4.22,1.75-5.87-1.08-7.51-3.78-1.87-3.1-4.09-5.23-8.58-3.34a35.66,35.66,0,0,1-.1,5.53c-.11.75-1.28,1.34-2,2-.64-.72-1.82-1.43-1.84-2.16-.14-6.63,0-13.26-.1-19.89,0-1.81.85-2.31,2.44-2.26,3.32.1,6.64.08,10,.27,3.49.2,6.06,1.85,6.85,5.4s.14,6.57-3,8.75C964.45,417.1,964,417.52,963.2,418.09ZM953,414.72c2.32,0,4.29,0,6.26,0,2.85-.06,4.76-1.27,5-4.34.17-2.74-1.33-4.17-4.65-4.54-6.65-.76-7-.44-6.79,6.29C952.79,412.76,952.88,413.41,953,414.72Z" transform="translate(-225.05 -279.55)"/><path class="cls-1" d="M951.3,366.27c0,4.59.1,9.19-.08,13.78a3.44,3.44,0,0,1-1.81,2.61c-2.37.62-2.07-1.32-2.07-2.78,0-6.13-.06-12.26,0-18.38,0-1,.71-2.86.94-2.84,1.36.14,3,.35,3.94,1.22a53.66,53.66,0,0,1,4.62,5.82,71.61,71.61,0,0,0,8.69,9.68c0-4.39,0-8.77,0-13.15,0-1.48-.8-3.6,1.88-3.79,2.86-.19,2,2,2.06,3.47.06,6.29,0,12.59,0,18.88a11.77,11.77,0,0,1-.17,1.44c-2.87,1.46-4.51,0-6.14-2.14-3.55-4.75-7.28-9.37-10.93-14Z" transform="translate(-225.05 -279.55)"/><path class="cls-1" d="M1022.77,340.05c-7.28,0-12.86-5.18-13-12.19-.18-7.23,5.42-12.75,12.92-12.76,7.32,0,12.61,5.19,12.63,12.4A12.27,12.27,0,0,1,1022.77,340.05Zm8.62-12.48a8.8,8.8,0,1,0-8.69,8.94A8.83,8.83,0,0,0,1031.39,327.57Z" transform="translate(-225.05 -279.55)"/><path class="cls-1" d="M925.41,426.76a12.42,12.42,0,0,1-12.49-12.69c.16-7.27,5.8-12.45,13.38-12.26a12.23,12.23,0,0,1,12.18,12.9C938.3,421.71,932.64,426.92,925.41,426.76Zm.37-3.48a8.86,8.86,0,0,0,8.72-8.92,8.75,8.75,0,1,0-17.49.05A8.87,8.87,0,0,0,925.78,423.28Z" transform="translate(-225.05 -279.55)"/><path class="cls-1" d="M1103.31,469c-4.45,1.87-5.94-1.19-7.42-3.63-1.94-3.19-4.18-5.14-8.66-3.49a40.12,40.12,0,0,1-.08,5.43,3.08,3.08,0,0,1-1.72,2.13c-1.85.56-2.12-.72-2.11-2.26,0-7.14,0-14.27,0-21.75,4.16,0,8.09-.12,12,0,3.15.12,6,1.17,6.86,4.62s.77,6.94-2.53,9.43c-.65.49-1.26,1-2,1.56Zm-15.86-11.36c2.38,0,4.65.15,6.89,0,2.6-.22,4.23-1.57,4.29-4.42s-1.59-4.18-4.19-4.36c-2.25-.16-4.52,0-7,0Z" transform="translate(-225.05 -279.55)"/><path class="cls-1" d="M1091.68,331.48c2,2.8,3.71,5.22,5.47,7.68-4.16,1-4.2,1-6.61-2.4-2.19-3.11-4-6.85-9.31-4.35,0,1.5,0,3.29,0,5.08,0,1.47-.08,2.89-2,2.32a2.88,2.88,0,0,1-1.73-2.06c-.13-7.25-.08-14.5-.08-21.93,4.16,0,8-.13,11.75,0,3.34.14,6.34,1.23,7.13,5,.76,3.56.61,7-2.9,9.29C1092.84,330.48,1092.35,330.93,1091.68,331.48ZM1081.36,328c2.67,0,5,.12,7.22,0,2.8-.18,3.88-1.89,3.94-4.62s-1.48-3.92-3.85-4.11-4.8,0-7.31,0Z" transform="translate(-225.05 -279.55)"/><path class="cls-1" d="M1023.93,374.28l5.46,7.83c-4.3.82-4.47.93-7.25-3.46-2-3.14-4.15-5.12-8.71-3.58a53.71,53.71,0,0,1-.08,5.9c-.07.65-1.21,1.78-1.62,1.68-.84-.19-2.16-1.06-2.18-1.68-.15-6.79-.17-13.59,0-20.38,0-.75,1.52-2,2.39-2.08a71.19,71.19,0,0,1,9.46.2c3.28.27,6.25,1.22,7.08,5,.8,3.64.53,6.93-3,9.21A16.06,16.06,0,0,0,1023.93,374.28Zm-10.29-3.43c2.73,0,5.05.18,7.34,0,2.47-.24,3.81-1.86,3.85-4.35s-1.2-3.9-3.75-4.38c-6.7-1.27-7.78-.44-7.65,6.32C1013.44,369,1013.54,369.68,1013.64,370.85Z" transform="translate(-225.05 -279.55)"/><path class="cls-1" d="M888.88,469.88V445.21c4.84-.09,9.74-.55,14.5.92s7.25,5.68,7.22,11.19-2.54,9.92-7.38,11C898.66,469.39,893.86,469.39,888.88,469.88Zm3.76-4.28c2.63,0,4.61.13,6.57,0,4.49-.34,7-2.86,7.34-7.14.56-7-5.54-11.79-12.4-9.58a3.23,3.23,0,0,0-1.45,2.52C892.56,456,892.64,460.53,892.64,465.6Z" transform="translate(-225.05 -279.55)"/><path class="cls-1" d="M921.35,445.15c5,0,9.75-.08,14.51.08.78,0,1.53,1.16,2.29,1.78-.76.58-1.5,1.63-2.29,1.67-3.45.19-6.9.08-10.57.08v6.79c2.48,0,5.09-.11,7.69.05,1.38.09,3.75-1.11,3.66,1.78-.08,2.47-2.13,1.39-3.43,1.54a22.74,22.74,0,0,1-2.48,0c-5.91,0-5.91,0-5.31,6.68,3.41,0,6.87-.13,10.31.09a3.53,3.53,0,0,1,2.64,1.81c.57,1.92-1,2-2.44,2H921.35Z" transform="translate(-225.05 -279.55)"/><path class="cls-1" d="M1045.14,368.84c2.83,0,5.47-.07,8.11,0,1.28,0,3.27-.83,3.17,1.75s-2.18,1.28-3.39,1.57a10.25,10.25,0,0,1-2.48,0c-6,0-6,0-5.23,6.73,3.42,0,6.88,0,10.35,0,1.34,0,2.65-.17,2.72,1.88s-1.26,1.94-2.61,1.94h-14.84c0-7.57,0-14.85,0-22.12,0-1.79.91-2.25,2.48-2.24,4.15,0,8.31-.09,12.46.1.75,0,1.44,1.26,2.16,1.93-.68.54-1.32,1.49-2,1.55-2.31.2-4.65.05-7,.07-4.19.05-4.2.06-4.1,4.07C1044.93,366.92,1045,367.7,1045.14,368.84Z" transform="translate(-225.05 -279.55)"/><path class="cls-1" d="M932.77,336.1c3.89,0,7.37-.14,10.82.08a3.53,3.53,0,0,1,2.63,1.82c.55,1.95-1.11,1.92-2.47,1.92-4.15,0-8.3-.06-12.44,0-1.86,0-2.69-.53-2.67-2.53.09-7.09,0-14.18,0-21.78,5.27,0,10.21-.08,15.14.09.67,0,1.3,1.33,1.94,2-.69.47-1.36,1.3-2.09,1.36a36.68,36.68,0,0,1-6.95,0c-3.35-.39-4.59.89-4.05,4.13.11.65.1,1.31.19,2.69,3.06,0,6.12-.11,9.17.07.83.05,1.61,1,2.41,1.54-.76.59-1.45,1.46-2.31,1.7a14.2,14.2,0,0,1-3.46.1C932.89,329.47,932.41,328,932.77,336.1Z" transform="translate(-225.05 -279.55)"/><path class="cls-1" d="M922.92,362.06v6.76c3.12,0,6.23-.09,9.34.06.72,0,1.41.86,2.11,1.32-.68.68-1.26,1.73-2.06,1.94a15.9,15.9,0,0,1-4,.08c-5.86,0-5.86,0-5.48,6.74,3.35,0,6.77,0,10.19,0,1.35,0,3.16-.69,3.3,1.77s-1.66,2-3,2c-4,.05-8,0-12,0-1.85,0-2.7-.54-2.68-2.54.08-7.11,0-14.21,0-21.84,5.15,0,9.94-.08,14.73.08a3,3,0,0,1,2.23,1.73c.49,2.1-1.23,1.83-2.54,1.83Z" transform="translate(-225.05 -279.55)"/><path class="cls-1" d="M1026.73,466c.9-1.91,1.64-3.2,4.1-1.85a12.24,12.24,0,0,0,6.06,1.65c1.42-.07,2.77-1.72,4.15-2.67-1-1.17-1.76-2.64-3-3.44s-2.82-.83-4.25-1.26c-4.74-1.39-6.78-3.81-6.39-7.52s3.54-6.29,8.19-6.2a23.24,23.24,0,0,1,6.28,1.13c.83.25,2.07,1.63,1.92,2.13-.49,1.58-1.68,2.18-3.5,1.3a12.6,12.6,0,0,0-4.29-1c-1.9-.17-3.82.15-4.34,2.38s1.28,3.17,3,3.79,3.84,1,5.67,1.75c3.66,1.45,5.25,3.95,4.78,7.17a7.34,7.34,0,0,1-6.37,6.05A14.5,14.5,0,0,1,1026.73,466Z" transform="translate(-225.05 -279.55)"/><path class="cls-1" d="M1065.36,324.87c0,2,.13,4,0,6-.42,5.54-4.23,9.19-9.61,9.34-5.85.16-10-3.22-10.44-8.94a133.08,133.08,0,0,1-.12-13.4,3,3,0,0,1,1.76-2.16c1.78-.43,2.16.89,2.16,2.41,0,4.14,0,8.28.12,12.41.1,3.18,1.72,5.3,4.94,5.92,4,.77,7-1.64,7.26-6.06.22-4,.1-7.94.06-11.92,0-1.64.13-3.28,2.25-2.75.76.19,1.53,1.74,1.65,2.74a55.47,55.47,0,0,1,.08,6.45Z" transform="translate(-225.05 -279.55)"/><path class="cls-1" d="M1143.41,339.63c0-7.26.06-14.2,0-21.14,0-2.09.61-3,2.82-3,3.82.11,7.64,0,11.46.05,1.37,0,3,0,2.48,1.95-.22.76-1.75,1.53-2.74,1.62a56.41,56.41,0,0,1-7.47,0c-3-.13-2.47,1.91-2.56,3.7s.18,3.26,2.61,3.11c2.15-.14,4.32-.06,6.48,0,1.23,0,3.09-.36,2.56,1.74-.18.74-1.76,1.44-2.79,1.58a24.39,24.39,0,0,1-5.47,0c-2.53-.21-3.57.57-3.45,3.33s.29,4.55,3.72,4.32,6.61,0,10,0C1159.6,340.34,1157.37,340.66,1143.41,339.63Z" transform="translate(-225.05 -279.55)"/><path class="cls-1" d="M688.94,430.8h5.78c0,12,0,23.73,0,35.48,0,1.83-.56,3.7-2.69,3.2a4.89,4.89,0,0,1-2.93-3.16c-.48-2.22-.15-4.62-.15-6.94Z" transform="translate(-225.05 -279.55)"/><path class="cls-1" d="M899.87,357.32a77,77,0,0,1,7.12,3c.65.34.73,1.76,1.06,2.69a8.59,8.59,0,0,1-2.87.41c-1.9-.37-3.72-1.42-5.61-1.52a7.92,7.92,0,0,0-8.2,5.17,8.78,8.78,0,0,0,1.94,9.63,9.19,9.19,0,0,0,9.72,1.71,4.36,4.36,0,0,0,1.29-.75c1.44-1.35,2.91-1.14,3.56.52.23.61-1,2.16-1.89,2.77a12.91,12.91,0,0,1-14.86-.76,12.15,12.15,0,0,1-3.76-13.91C889.23,361,893.69,358,899.87,357.32Z" transform="translate(-225.05 -279.55)"/><path class="cls-1" d="M888.67,402.26c5.09,0,9.56-.09,14,.09.75,0,1.45,1.23,2.17,1.89-.79.55-1.54,1.47-2.38,1.57a27.08,27.08,0,0,1-6,0c-3-.33-4.38.71-3.89,3.84a23.6,23.6,0,0,1,0,3.13c3.23,0,6.33-.11,9.41.08a3,3,0,0,1,2.23,1.65c.5,1.84-.86,2.09-2.37,2.06-2.95-.06-5.9,0-9.25,0,0,2.87.14,5.33-.09,7.76a3.05,3.05,0,0,1-1.71,2.19c-1.68.47-2.23-.6-2.21-2.26C888.7,417.15,888.67,410,888.67,402.26Z" transform="translate(-225.05 -279.55)"/><path class="cls-1" d="M1111.81,445c7.66.45,6.89,7.76,11,10.44,4.18-2.37,3.5-9.93,10.67-9.6-1.63,2.59-3.18,5.23-4.9,7.76-2.55,3.77-4.48,7.64-3.78,12.42.21,1.44.75,3.53-2,3.5-2.52,0-2-1.92-1.79-3.18.69-5-1.28-9-4-12.89C1115.34,451,1113.92,448.42,1111.81,445Z" transform="translate(-225.05 -279.55)"/><path class="cls-1" d="M993.88,448.66c0,6.26,0,11.88,0,17.51,0,1.3.74,3.19-1.76,3.32-2.8.14-2.16-1.89-2.17-3.41,0-5.62,0-11.24,0-17.41a45.06,45.06,0,0,1-5.63-.08c-.66-.08-1.21-1-1.81-1.62.57-.6,1.13-1.7,1.71-1.72q7.73-.19,15.45,0c.58,0,1.12,1.12,1.69,1.72-.62.56-1.17,1.49-1.85,1.59A41.14,41.14,0,0,1,993.88,448.66Z" transform="translate(-225.05 -279.55)"/><path class="cls-1" d="M987.53,362a26.66,26.66,0,0,1-5-.09c-.83-.17-1.48-1.17-2.22-1.79.65-.55,1.28-1.55,1.93-1.57q7.44-.19,14.89,0c.67,0,1.32,1.05,2,1.61a10.58,10.58,0,0,1-2.28,1.78,5.17,5.17,0,0,1-2.45,0c-2.14-.21-2.93.66-2.88,2.83.11,4.95.06,9.91,0,14.86,0,1.36.57,3.09-1.91,3.15s-2-1.62-2-3C987.52,374,987.53,368.26,987.53,362Z" transform="translate(-225.05 -279.55)"/><path class="cls-1" d="M1061.37,448.67a39.74,39.74,0,0,1-5.32-.07c-.71-.11-1.32-1-2-1.54.58-.62,1.14-1.76,1.73-1.78q7.7-.24,15.39,0c.57,0,1.11,1.26,1.66,1.94-.68.51-1.31,1.35-2,1.45a41.55,41.55,0,0,1-5.46.07c0,6.19.07,12.09-.07,18a3.45,3.45,0,0,1-1.65,2.69c-2.08.63-2.3-.9-2.28-2.59C1061.41,461,1061.37,455.21,1061.37,448.67Z" transform="translate(-225.05 -279.55)"/><path class="cls-1" d="M961.33,336.08c3.28,0,6.09-.13,8.87.09.76.05,1.44,1.15,2.16,1.77-.67.66-1.33,1.33-2,2-.09.08-.32,0-.49,0L958,339.62c-.21-3.76-.49-7.5-.59-11.26-.11-3.48-.13-7,.06-10.46a3,3,0,0,1,1.72-2.17c1.74-.49,2.23.69,2.2,2.29-.06,3,0,6,0,9Z" transform="translate(-225.05 -279.55)"/><path class="cls-1" d="M1015.71,457.55c0,3.14,0,6.29,0,9.43,0,1.46-.15,2.88-2,2.41a3,3,0,0,1-1.82-2.1q-.2-9.93,0-19.85a3,3,0,0,1,1.78-2.19c1.92-.53,2.06.9,2,2.37,0,3.31,0,6.62,0,9.93Z" transform="translate(-225.05 -279.55)"/><path class="cls-1" d="M725,399.93c-4.16,6.48-11.46,8.4-17.21,5.19Z" transform="translate(-225.05 -279.55)"/></svg>